<?xml version="1.0" encoding="utf-8"?>
<!-- Generator: Adobe Illustrator 16.0.0, SVG Export Plug-In . SVG Version: 6.00 Build 0)  -->
<!DOCTYPE svg PUBLIC "-//W3C//DTD SVG 1.1//EN" "http://www.w3.org/Graphics/SVG/1.1/DTD/svg11.dtd">
<svg version="1.1" id="Layer_1" xmlns="http://www.w3.org/2000/svg" xmlns:xlink="http://www.w3.org/1999/xlink" x="0px" y="0px"
	 width="24px" height="24px" viewBox="0 0 24 24" style="enable-background:new 0 0 24 24;" xml:space="preserve">
<g id="Layer_1_1_">
	<g>
		<path d="M16.755,10.727h-2.307V8.848h0.521c-0.429-0.567-0.759-1.186-0.854-1.879H6.163L5.979,5.875
			C5.905,5.422,5.513,5.089,5.053,5.089H2.939C2.42,5.089,2,5.509,2,6.029c0,0.52,0.42,0.94,0.939,0.94h1.318l1.748,10.488
			c0.008,0.042,0.029,0.077,0.042,0.116c0.015,0.05,0.027,0.097,0.05,0.143c0.03,0.061,0.071,0.113,0.113,0.168
			c0.03,0.036,0.056,0.072,0.09,0.105c0.054,0.05,0.117,0.086,0.181,0.121c0.036,0.019,0.066,0.047,0.105,0.061
			c0.109,0.046,0.224,0.071,0.345,0.071c0.001,0,10.335,0,10.335,0c0.519,0,0.939-0.42,0.939-0.939s-0.421-0.939-0.939-0.939H7.728
			l-0.156-0.939h10.634c0.468,0,0.864-0.344,0.93-0.806l0.356-2.488C18.487,11.936,17.587,11.453,16.755,10.727z M9.75,13.545H7.258
			l-0.313-1.879H9.75V13.545z M9.75,10.727H6.932c-0.05,0-0.095,0.014-0.139,0.027L6.476,8.848H9.75V10.727z M13.509,13.545H10.69
			v-1.879h2.819V13.545z M13.509,10.727H10.69V8.848h2.819V10.727z M17.391,13.545h-2.942v-1.879h3.211L17.391,13.545z"/>
		<circle cx="8.341" cy="20.591" r="1.409"/>
		<circle cx="16.797" cy="20.591" r="1.409"/>
	</g>
</g>
<title></title>
<g id="Icons_with_numbers">
	<g id="Group" transform="translate(0.000000, -528.000000)">
		<path id="Oval_210_copy" d="M15.024,535.133v1.277h1.915v1.916h1.279v-1.916h1.915v-1.277h-1.915v-1.916h-1.279v1.916H15.024z
			 M17.579,540.88c-2.821,0-5.109-2.287-5.109-5.108c0-2.822,2.288-5.109,5.109-5.109c2.822,0,5.109,2.288,5.109,5.109
			C22.688,538.593,20.401,540.88,17.579,540.88z"/>
	</g>
</g>
</svg>
