<?xml version="1.0" encoding="utf-8"?>
<!-- Generator: Adobe Illustrator 16.0.0, SVG Export Plug-In . SVG Version: 6.00 Build 0)  -->
<!DOCTYPE svg PUBLIC "-//W3C//DTD SVG 1.1//EN" "http://www.w3.org/Graphics/SVG/1.1/DTD/svg11.dtd">
<svg version="1.1" id="Livello_1" xmlns="http://www.w3.org/2000/svg" xmlns:xlink="http://www.w3.org/1999/xlink" x="0px" y="0px"
	 width="141.732px" height="141.732px" viewBox="0 0 141.732 141.732" style="enable-background:new 0 0 141.732 141.732;"
	 xml:space="preserve">
<style type="text/css">
<![CDATA[
	.st0{fill:#FFFFFF;}
]]>
</style>
<g id="Livello_73">
	<path class="st0" d="M36.298,70.968c-9.634-9.633-9.632-25.249,0-34.884c9.632-9.635,25.25-9.637,34.885-0.003
		c9.042,9.044,9.6,23.356,1.666,33.045l-3.505,3.508C59.653,80.564,45.34,80.01,36.298,70.968 M27.765,79.882
		c12.964,12.964,33.151,14.29,47.602,3.991l39.339,39.341c2.408,2.408,6.313,2.408,8.721,0c2.408-2.41,2.408-6.313,0-8.724
		L84.088,75.151c10.298-14.45,8.973-34.637-3.991-47.601c-14.451-14.45-37.882-14.45-52.331,0
		C13.315,42.001,13.315,65.43,27.765,79.882"/>
</g>
<g id="Livello_1_1_">
</g>
</svg>
