<?xml version="1.0" encoding="utf-8"?>
<!-- Generator: Adobe Illustrator 16.0.0, SVG Export Plug-In . SVG Version: 6.00 Build 0)  -->
<!DOCTYPE svg PUBLIC "-//W3C//DTD SVG 1.1//EN" "http://www.w3.org/Graphics/SVG/1.1/DTD/svg11.dtd">
<svg version="1.1" id="Layer_1" xmlns="http://www.w3.org/2000/svg" xmlns:xlink="http://www.w3.org/1999/xlink" x="0px" y="0px"
	 width="19.25px" height="18px" viewBox="0 0 19.25 18" style="enable-background:new 0 0 19.25 18;" xml:space="preserve">
<style type="text/css">
<![CDATA[
	.st0{fill:#FFFFFF;}
]]>
</style>
<g id="Layer_1_1_">
	<g>
		<path class="st0" d="M17.62,3.051c-0.167-0.192-0.407-0.302-0.66-0.302H4.875L4.704,1.731C4.635,1.31,4.27,1,3.842,1H1.875
			C1.391,1,1,1.391,1,1.875c0,0.483,0.391,0.875,0.875,0.875h1.227l1.627,9.763c0.007,0.039,0.027,0.072,0.04,0.109
			c0.014,0.045,0.025,0.088,0.047,0.131c0.028,0.057,0.066,0.107,0.105,0.156c0.027,0.035,0.052,0.068,0.083,0.1
			c0.05,0.047,0.109,0.08,0.168,0.111c0.033,0.02,0.062,0.045,0.098,0.057c0.102,0.043,0.208,0.066,0.321,0.066
			c0.001,0,9.621,0,9.621,0c0.483,0,0.874-0.391,0.874-0.873c0-0.484-0.391-0.875-0.874-0.875H6.332l-0.146-0.875h9.898
			c0.436,0,0.805-0.32,0.866-0.75l0.874-6.121C17.861,3.496,17.786,3.241,17.62,3.051z M15.952,4.498l-0.25,1.749h-3.115V4.498
			H15.952z M11.713,4.498v1.749H9.089V4.498H11.713z M11.713,7.121v1.75H9.089v-1.75H11.713z M8.214,4.498v1.749H5.591
			c-0.047,0-0.088,0.014-0.129,0.026L5.166,4.498H8.214z M5.604,7.121h2.611v1.75h-2.32L5.604,7.121z M12.587,8.871v-1.75h2.989
			l-0.249,1.75H12.587z"/>
		<circle class="st0" cx="6.903" cy="15.429" r="1.312"/>
		<circle class="st0" cx="14.773" cy="15.429" r="1.312"/>
	</g>
</g>
</svg>
